<svg width="150" height="150" xmlns="http://www.w3.org/2000/svg"><g transform="translate(38 38)" fill="#FFF" fill-rule="evenodd"><path d="M53.025 22.707A5.939 5.939 0 0 0 48.045 20H17.946a5.939 5.939 0 0 0-4.98 2.707 6.276 6.276 0 0 0-.48 5.77l.611-.266-.611.266 15.07 34.928c.962 2.22 3.059 3.595 5.461 3.595 2.403 0 4.5-1.376 5.46-3.64L53.55 28.433a6.335 6.335 0 0 0-.524-5.725zM38.87 51.111c-.743 1.731-2.359 2.796-4.237 2.84-1.879 0-3.495-1.064-4.281-2.84l-8.344-19.394c-.044-.089-.088-.222-.131-.311a4.822 4.822 0 0 1 .524-4.083c.874-1.331 2.272-2.13 3.888-2.13h16.687c1.573 0 3.015.754 3.888 2.13.874 1.331 1.005 3.018.394 4.482l-2.971 6.924-5.417 12.382z" fill-rule="nonzero"/><circle cx="32.5" cy="7.5" r="7.5"/><path d="M11 60.5A5.5 5.5 0 0 1 5.5 66 5.5 5.5 0 0 1 0 60.5 5.5 5.5 0 0 1 5.5 55a5.5 5.5 0 0 1 5.5 5.5z"/><circle cx="60.5" cy="60.5" r="5.5"/></g></svg>