<svg width="150" height="150" xmlns="http://www.w3.org/2000/svg"><g fill="#FFF" stroke="#FFF" fill-rule="evenodd"><path d="M71.84 70.17a3.39 3.39 0 0 0-4.77 0 3.32 3.32 0 0 0 0 4.71l6.43 6.31a1 1 0 0 0 .72.25.93.93 0 0 0 .71-.28l11-11.87a3.4 3.4 0 0 0-4.61-5l-.21.22-7 7.89-2.27-2.23z"/><path d="M106.5 51.5v9h9v-9h-4v-13h-5v-4h-9v4h-5v13.68l-16.69-5.46a.94.94 0 0 0-.62 0L58.5 52.18V38.5h-5v-4h-9v4h-5v13h-4v9h4v8h-4v9h4v8h-4v9h9v-9h-4v-8h4v-4h7.89A36.09 36.09 0 0 0 63 91.5H47.5v5h-4v9h4v5h13v4h9v-4h6v4h9v-9h-9v4h-6v-4h-9v4h-12v-4h4v-9h-4v-4h15.64c.33.28.66.57 1 .84l9.86 6.77a1.35 1.35 0 0 0 1.47 0l2.33-1.61h13.7v12h5v4h9v-4h5v-12h4v-9h-4v-6h4v-9h-9v9h4v6h-4v9h4v11h-4v-4h-9v4h-4v-12H80.24l6-4.2A34.75 34.75 0 0 0 99.5 66V55.19a1 1 0 0 0-.69-1L93.5 52.5v-13h4v4h9v-4h4v12h-4zm-63 35v7h-7v-7h7zm33 20h7v7h-7v-7zm-15 0h7v7h-7v-7zm-10-9v7h-7v-7h7zm56-15v-7h7v7h-7zm0 15v-7h7v7h-7zm-9 9h7v7h-7v-7zm-6-38.92a25.77 25.77 0 0 1-9.76 20.2l-7.23 5-7.2-5a25.76 25.76 0 0 1-9.81-20.2v-7.85l17-5.63 17 5.63v7.85zm-47-32.08h7v7h-7v-7zm-5 4h4v4h9v-4h4v13l-5.31 1.74a1 1 0 0 0-.69 1v.26h-7v-4h-4v-12zm-4 20v-7h7v7h-7zm7 17h-7v-7h7v7zm1-4v-4h-4v-8h4v-4h7V66c.01 2.18.239 4.355.68 6.49l-7.68.01zm61-30h-7v-7h7v7zm9 10v7h-7v-7h7z" fill-rule="nonzero"/></g></svg>