<svg width="150" height="150" xmlns="http://www.w3.org/2000/svg"><g fill="#FFF" fill-rule="evenodd"><path d="M30.28 71.185c1.288 2.083.805 4.847-1.106 6.325-1.91 1.479-4.595 1.168-6.145-.712l-7.467 4.875c1.56 3.276.941 7.222-1.54 9.813-2.482 2.591-6.274 3.252-9.433 1.643C.524 91.05-1.154 85.94.84 81.71a.792.792 0 0 1 .66-.5.78.78 0 0 1 .733.375.848.848 0 0 1 .02.849c-1.406 2.979-.573 6.576 1.983 8.563 2.556 1.988 6.111 1.801 8.462-.443 2.35-2.244 2.831-5.91 1.144-8.728a.84.84 0 0 1 .248-1.118l8.133-5.318c-.828-2.26.124-4.804 2.202-5.888 2.079-1.084 4.61-.357 5.857 1.684z"/><path d="M34.96 72.86c.304 3.134-1.145 6.177-3.748 7.868a7.982 7.982 0 0 1-3.57 1.262.778.778 0 0 1-.754-.311.816.816 0 0 1-.08-.827.785.785 0 0 1 .681-.455c3.163-.322 5.653-2.898 5.927-6.131.274-3.234-1.745-6.208-4.806-7.08-3.062-.873-6.298.605-7.702 3.516a.778.778 0 0 1-1.05.364l-7.652-3.812c-.338.496-.77.918-1.271 1.24a4.444 4.444 0 0 1-5.717-.738 4.681 4.681 0 0 1-.344-5.873c1.283-1.788 3.632-2.388 5.59-1.43 1.956.96 2.967 3.206 2.405 5.347l7.007 3.495c1.846-3.037 5.381-4.538 8.792-3.732 3.41.806 5.94 3.74 6.292 7.297z"/><path d="M14.874 59.88a.829.829 0 0 1-.229 1.12.762.762 0 0 1-1.077-.238c-1.68-2.757-5.013-3.877-7.929-2.666-2.916 1.211-4.586 4.41-3.973 7.61.613 3.2 3.334 5.492 6.474 5.451.426-.004.775.35.782.79l.116 8.91c2.267.374 3.883 2.485 3.723 4.863-.16 2.378-2.041 4.236-4.335 4.28-2.295.043-4.24-1.742-4.483-4.113-.243-2.37 1.298-4.54 3.55-5L7.4 72.738C3.626 72.412.578 69.402.073 65.502c-.506-3.9 1.668-7.64 5.226-8.991 3.557-1.352 7.54.05 9.575 3.369z"/><path d="M69.48 69.778c-3.52-.001-6.575 2.5-7.378 6.039-.804 3.538.858 7.182 4.01 8.796 3.153 1.615 6.966.775 9.207-2.027.274-.342.322-.821.12-1.213a1.054 1.054 0 0 0-1.04-.577c-.276.03-.53.17-.707.39-1.258 1.568-3.237 2.312-5.176 1.947-1.94-.365-3.537-1.782-4.179-3.707l-.078-.241h11.736c.558.001 1.022-.445 1.06-1.02V77.6c-.003-4.32-3.393-7.82-7.575-7.821zm-5.426 7.215l.028-.209c.395-2.763 2.691-4.81 5.396-4.81s5 2.047 5.395 4.81l.032.209h-10.85zM150 79.725c0 3.336-2.713 5.663-6.603 5.663-2.568 0-4.924-1.286-6.013-3.288a1.115 1.115 0 0 1 .421-1.47 1.042 1.042 0 0 1 1.432.403c.708 1.308 2.331 2.152 4.142 2.152 2.232 0 4.481-1.074 4.481-3.47a.539.539 0 0 0-.163-.428c-.756-.76-3.285-.698-4.116-.676h-.793c-1.33.03-3.795.091-5.146-1.275a3.047 3.047 0 0 1-.87-2.192c0-3.23 2.83-5.662 6.603-5.662 2.572 0 4.924 1.286 5.995 3.288.195.342.194.767 0 1.109a1.054 1.054 0 0 1-.939.54 1.058 1.058 0 0 1-.914-.583c-.707-1.308-2.33-2.151-4.142-2.151-2.228 0-4.48 1.194-4.48 3.47a.826.826 0 0 0 .23.636c.706.73 2.829.668 3.614.65h.785c2.21-.055 4.425.062 5.659 1.3.519.52.808 1.238.8 1.984H150zm-64.265 5.703a1.229 1.229 0 0 1-1.11-.73l-6.462-13.594a1.298 1.298 0 0 1 .586-1.666 1.219 1.219 0 0 1 1.635.54l5.34 11.249 5.256-11.241c.166-.45.563-.765 1.026-.815.463-.051.915.17 1.169.574.254.404.267.92.033 1.337L86.842 84.69c-.202.445-.635.73-1.11.73l.003.008zm-37.137 0h-3.36c-.684 0-1.238-.573-1.238-1.279V63.28c0-.707.554-1.279 1.238-1.279H48.6c6.263 0 11.34 5.244 11.34 11.712 0 6.469-5.077 11.712-11.34 11.712l-.003.004zm-2.122-2.408h2.122c4.827-.1 8.69-4.17 8.69-9.156 0-4.987-3.863-9.057-8.69-9.157h-2.122V83.02zm59.688 2.375c-6.055 0-10.964-5.07-10.964-11.325 0-6.254 4.909-11.325 10.964-11.325 6.055 0 10.964 5.07 10.964 11.325-.002 6.25-4.906 11.317-10.957 11.321l-.007.004zm0-20.07c-4.688 0-8.488 3.925-8.488 8.767s3.8 8.768 8.488 8.768 8.489-3.926 8.489-8.768c.001-4.84-3.795-8.767-8.482-8.771l-.007.003zm20.815 4.412c-4.075.004-7.425 3.321-7.601 7.526v13.641c0 .605.475 1.096 1.06 1.096.587 0 1.062-.49 1.062-1.096v-7.862c2.4 2.583 6.186 3.166 9.21 1.417 3.025-1.75 4.523-5.388 3.645-8.851-.878-3.463-3.91-5.877-7.376-5.87zm0 13.54c-3.034 0-5.493-2.54-5.493-5.674 0-3.134 2.459-5.674 5.493-5.674 3.033 0 5.492 2.54 5.492 5.674-.002 3.132-2.46 5.671-5.492 5.673z" fill-rule="nonzero"/><path d="M119.002 76.837v.326-.216c-.007-.022-.004-.058 0-.11z"/></g></svg>